# xmcd CD database file
#
# Track frame offsets:
#	151
#	13911
#	44593
#	89933
#	110581
#	140222
#	166764
#	188224
#	214976
#	250934
#	288558
#
# Disc length: 4108 seconds
#
# Revision: 1
# Processed by: cddbd v1.4PL0 Copyright (c) Steve Scherf et al.
# Submitted via: CDex 1.51
#
DISCID=b2100a0b
DTITLE=Lambchop - Mono
DYEAR=2002
DGENRE=Country
TTITLE0=Intro
TTITLE1=The Daily Growl
TTITLE2=The New Cobweb Summer
TTITLE3=I'm a Stranger Here
TTITLE4=Betweemus
TTITLE5=Your Life as a Sequel
TTITLE6=I Can Hardly Spell My Name
TTITLE7=The Old Matchbook Trick
TTITLE8=My Blue Wave
TTITLE9=You Masculine You
TTITLE10=The Gusher
EXTD=Tour only CD YEAR: 2002
EXTT0=
EXTT1=
EXTT2=
EXTT3=
EXTT4=
EXTT5=
EXTT6=
EXTT7=
EXTT8=
EXTT9=
EXTT10=
PLAYORDER=
